<svg xmlns="http://www.w3.org/2000/svg" width="600" height="472" viewBox="0 0 600 472"><g transform="translate(-896 -664)"><rect width="600" height="472" transform="translate(896 664)" fill="#fff" opacity="0"/><g transform="translate(871.469 696.996)"><path d="M318.006,204.037a2.879,2.879,0,0,0,.245-1.111V74.221a3.225,3.225,0,0,0-2.222-2.971,3.925,3.925,0,0,0-3.929.693L240,136.3c-.059.052-.082.127-.137.183a3.357,3.357,0,0,0-.513.686c-.052.1-.111.193-.157.3a2.854,2.854,0,0,0-.245,1.111v128.7a3.232,3.232,0,0,0,2.223,2.971,3.948,3.948,0,0,0,1.379.245,3.832,3.832,0,0,0,2.553-.941L317.2,205.2c.059-.052.082-.124.137-.18a3.38,3.38,0,0,0,.513-.69C317.9,204.233,317.96,204.142,318.006,204.037Zm-67.024-53.385,58.373,52.1-63.2,48.656V146.344Zm-3.138-11.9,63.2-48.656V195.157l-4.827-4.311Z" transform="translate(45.984 0)" fill="#50a455"/><g transform="translate(218.676 294.459)"><path d="M222.892,170.2a8.392,8.392,0,0,0,3.543,3.066,10.631,10.631,0,0,0,4.455.987,9.125,9.125,0,0,0,2.615-.4,8.009,8.009,0,0,0,2.425-1.2,6.626,6.626,0,0,0,1.788-1.974,5.249,5.249,0,0,0,.693-2.719,4.087,4.087,0,0,0-1.386-3.334,11.917,11.917,0,0,0-3.442-1.919c-1.369-.513-2.863-1.016-4.478-1.494a18.259,18.259,0,0,1-4.481-2,10.926,10.926,0,0,1-3.438-3.438,10.71,10.71,0,0,1-1.389-5.841,9.733,9.733,0,0,1,.722-3.52A9.852,9.852,0,0,1,222.784,143a12.548,12.548,0,0,1,3.974-2.585,14.83,14.83,0,0,1,5.837-1.039,20.4,20.4,0,0,1,5.922.856,10.144,10.144,0,0,1,4.955,3.464l-4.157,3.788a6.9,6.9,0,0,0-2.719-2.4,8.646,8.646,0,0,0-4-.905,9.642,9.642,0,0,0-3.546.559,6.381,6.381,0,0,0-2.265,1.438,5.072,5.072,0,0,0-1.2,1.9,5.69,5.69,0,0,0-.35,1.866,4.756,4.756,0,0,0,1.389,3.68,10.753,10.753,0,0,0,3.438,2.079,42.041,42.041,0,0,0,4.481,1.441,19.071,19.071,0,0,1,4.478,1.788,10.347,10.347,0,0,1,3.442,3.092,9.1,9.1,0,0,1,1.386,5.357,11.281,11.281,0,0,1-1.039,4.906,10.88,10.88,0,0,1-2.8,3.68,12.381,12.381,0,0,1-4.161,2.294,16.084,16.084,0,0,1-5.118.8,18.64,18.64,0,0,1-6.88-1.281,11.335,11.335,0,0,1-5.174-3.948Z" transform="translate(-218.676 -139.373)" fill="#50a455"/><path d="M228.694,139.667h5.118v37.756h-5.118Z" transform="translate(-195.952 -138.706)" fill="#50a455"/><path d="M233.23,139.667H257.6v4.8H238.352v11.25h17.917v4.8H238.352v12.1h20.212v4.8H233.23Z" transform="translate(-185.662 -138.706)" fill="#50a455"/><path d="M243.2,139.667h5.118v16.319h.428l16.692-16.319h7.145L254.344,157.1l19.466,20.319h-7.468l-17.6-18.878h-.428v18.878H243.2Z" transform="translate(-163.049 -138.706)" fill="#50a455"/><path d="M253.772,139.667h24.372v4.8H258.894v11.25h17.917v4.8H258.894v12.1h20.212v4.8H253.772Z" transform="translate(-139.066 -138.706)" fill="#50a455"/><path d="M263.741,139.667h6.723l20.8,31.036h.1V139.667h5.118v37.756h-6.5L268.97,146.387h-.111v31.036h-5.118Z" transform="translate(-116.453 -138.706)" fill="#50a455"/><path d="M279.995,170.2a8.4,8.4,0,0,0,3.546,3.066,10.605,10.605,0,0,0,4.452.987,9.107,9.107,0,0,0,2.615-.4,7.933,7.933,0,0,0,2.425-1.2,6.539,6.539,0,0,0,1.788-1.974,5.218,5.218,0,0,0,.693-2.719,4.087,4.087,0,0,0-1.386-3.334,11.916,11.916,0,0,0-3.441-1.919c-1.366-.513-2.86-1.016-4.478-1.494a18.259,18.259,0,0,1-4.481-2,10.917,10.917,0,0,1-3.435-3.438,10.682,10.682,0,0,1-1.389-5.841A10.06,10.06,0,0,1,279.89,143a12.475,12.475,0,0,1,3.974-2.585,14.819,14.819,0,0,1,5.837-1.039,20.381,20.381,0,0,1,5.919.856,10.166,10.166,0,0,1,4.958,3.464l-4.161,3.788a6.883,6.883,0,0,0-2.719-2.4,8.623,8.623,0,0,0-4-.905,9.63,9.63,0,0,0-3.546.559,6.4,6.4,0,0,0-2.268,1.438,5.156,5.156,0,0,0-1.2,1.9,5.765,5.765,0,0,0-.346,1.866,4.745,4.745,0,0,0,1.389,3.68,10.735,10.735,0,0,0,3.435,2.079,42.037,42.037,0,0,0,4.481,1.441,19.039,19.039,0,0,1,4.481,1.788,10.37,10.37,0,0,1,3.438,3.092,9.077,9.077,0,0,1,1.386,5.357,11.28,11.28,0,0,1-1.036,4.906,10.846,10.846,0,0,1-2.8,3.68,12.366,12.366,0,0,1-4.157,2.294,16.106,16.106,0,0,1-5.122.8,18.612,18.612,0,0,1-6.877-1.281,11.335,11.335,0,0,1-5.174-3.948Z" transform="translate(-89.139 -139.373)" fill="#50a455"/></g></g></g></svg>